<svg width="273" height="273" viewBox="0 0 273 273" fill="none" xmlns="http://www.w3.org/2000/svg">
<path d="M84.5168 161.181C84.5287 161.181 84.5411 161.181 84.553 161.181C84.9543 161.171 85.3071 160.987 85.547 160.664C85.9006 160.188 85.9827 159.473 85.7722 158.705C85.4236 157.433 84.4003 156.453 83.4302 156.453C83.4183 156.453 83.4059 156.453 83.394 156.453C82.9926 156.463 82.6399 156.647 82.4 156.97C82.0464 157.447 81.9643 158.161 82.1748 158.929C82.5225 160.201 83.5458 161.182 84.5168 161.181ZM82.8381 157.296C82.9798 157.105 83.171 157.005 83.4073 156.999C84.1159 157.003 84.9654 157.829 85.2451 158.85C85.4084 159.446 85.3575 160.003 85.108 160.338C84.9663 160.529 84.7746 160.629 84.5388 160.635C83.8201 160.64 82.9807 159.805 82.7009 158.784C82.5376 158.188 82.589 157.632 82.8381 157.296ZM250.595 236.1H224.476H204.214L201.076 218.947C201.237 217.769 204.661 192.707 205.808 182.293C206.422 176.716 210.546 167.277 214.185 158.948C217.657 151.002 220.399 144.724 219.746 142.87C218.532 139.424 205.641 118.022 203.608 114.656H211.256C213.494 114.656 215.314 112.286 215.314 109.372C215.314 107.736 214.729 106.205 213.753 105.211C216.25 104.913 217.771 102.961 217.771 99.967C217.771 98.352 217.201 96.8389 216.248 95.844C218.45 95.7903 220.228 93.441 220.228 90.5615C220.228 88.9465 219.658 87.4334 218.705 86.439C220.907 86.3844 222.685 84.0356 222.685 81.156C222.685 78.243 220.865 75.8731 218.627 75.8731H199.448L200.378 65.7746C200.578 63.6147 200.213 61.9905 199.294 60.9475C198.615 60.1765 197.63 59.7472 196.437 59.7059H193.815C192.141 59.7059 191.74 61.3112 191.589 61.9153L189.401 70.6823L178.99 82.161H176.797V81.573C176.797 80.5469 176.232 79.9814 175.205 79.9814H153.907C152.88 79.9814 152.315 80.5465 152.315 81.573V114.636C152.315 115.662 152.88 116.228 153.907 116.228H163.714C161.781 119.467 149.9 139.434 148.689 142.87C148.036 144.724 150.778 151.001 154.251 158.948C157.889 167.276 162.014 176.716 162.628 182.293C163.779 192.744 167.224 217.953 167.362 218.961L165.868 236.1H105.838C102.468 230.509 99.4176 225.511 96.3917 221.127C96.3339 221.035 95.7244 220.076 95.052 219.505C94.5488 219.079 93.9667 218.761 93.6759 218.615C93.7668 217.703 93.7558 216.667 93.5943 215.493C93.5278 215.011 93.4292 214.515 93.3035 214.011L101.693 214.966C101.893 214.985 102.086 214.986 102.269 214.971C103.723 214.904 105.047 214.271 105.879 213.225C106.51 212.432 106.76 211.499 106.549 210.729L102.35 195.392C102.489 195.282 102.611 195.165 102.717 195.042C103.308 194.36 103.254 193.639 103.225 193.253C103.175 192.568 102.781 191.868 102.513 191.464C103.609 191.146 104.331 190.384 104.312 189.475C104.289 188.37 103.095 187.071 99.9441 186.604L98.5245 181.419C99.2112 181.224 99.7721 181.021 100.155 180.794C100.579 180.542 100.722 180.147 100.539 179.736C100.261 179.115 99.2341 178.482 97.6077 178.07L91.2445 154.831C90.7721 153.107 88.9562 151.541 87.1968 151.341L65.8086 148.907C65.5114 148.874 65.0105 148.923 64.6183 149.116L62.1099 150.344C61.0526 150.767 60.5958 151.864 60.9458 153.143L66.9663 175.132C66.8071 175.892 66.6204 176.623 66.4163 177.332C66.3879 177.431 66.3581 177.528 66.3292 177.626C65.6948 179.756 64.9032 181.661 64.1766 183.404C62.4819 187.47 61.0178 190.982 62.6461 194.929C63.8088 197.748 64.9316 200.145 66.0177 202.464C66.4218 203.327 66.8222 204.183 67.2199 205.05C68.1464 207.07 69.055 209.152 69.9453 211.522C71.3557 215.276 72.7203 219.753 74.0357 225.86C74.0366 225.865 74.0376 225.869 74.0389 225.874C74.0435 225.891 74.0499 225.909 74.0582 225.925C74.1376 226.096 75.9112 229.921 78.9265 236.1H49.8574H23.245C22.9409 236.1 22.6946 236.346 22.6946 236.65C22.6946 236.955 22.9409 237.201 23.245 237.201H250.595C250.899 237.201 251.145 236.955 251.145 236.65C251.145 236.346 250.899 236.1 250.595 236.1ZM93.6026 219.193C93.8938 219.35 94.3259 219.606 94.6992 219.922C94.7424 219.959 94.7841 220.005 94.8272 220.045C95.063 220.267 95.2845 220.526 95.4703 220.769C95.5946 220.931 95.7069 221.085 95.7854 221.2C94.6153 221.963 93.2691 222.687 91.7963 223.332C92.4926 222.512 93.2939 221.181 93.6026 219.193ZM103.41 213.88C103.145 214.196 102.739 214.383 102.243 214.426C102.098 214.432 101.951 214.433 101.804 214.427C101.802 214.427 101.8 214.427 101.798 214.427C101.782 214.426 101.765 214.424 101.749 214.422L93.1517 213.444C91.5775 207.907 87.0445 201.539 86.0763 200.218C87.0661 199.598 91.0831 197.292 96.6004 196.9C97.6581 196.825 98.5837 196.709 99.3813 196.552L103.654 212.158C103.845 212.853 103.758 213.464 103.41 213.88ZM106.023 210.873C106.033 210.909 106.037 210.946 106.044 210.982C106.076 211.147 106.082 211.32 106.062 211.498C106.013 211.954 105.805 212.441 105.451 212.885C105.068 213.367 104.565 213.749 103.986 214.013C104.321 213.477 104.39 212.779 104.181 212.015L99.9157 196.436C100.715 196.245 101.366 196.005 101.872 195.715L106.023 210.873ZM99.3579 186.53C98.9396 186.484 98.4911 186.454 98.0104 186.438C97.737 186.429 97.4586 186.424 97.1747 186.423L95.9716 182.03C96.7032 181.872 97.388 181.718 97.9975 181.562L99.3579 186.53ZM96.6091 186.426C90.7047 186.507 82.9715 188.098 79.887 188.786C81.5102 187.667 84.6255 185.626 87.4954 184.352C89.7131 183.367 92.6068 182.749 95.1593 182.203C95.2524 182.183 95.345 182.164 95.4368 182.144L96.6091 186.426ZM64.8591 149.606C65.1541 149.462 65.5554 149.427 65.7471 149.45L87.1358 151.884C88.6668 152.058 90.3075 153.474 90.7189 154.976L97.005 177.934C96.3408 177.8 95.5941 177.701 94.7735 177.651L88.8778 156.118C88.4058 154.393 86.59 152.827 84.8301 152.627L63.6221 150.213L64.8591 149.606ZM61.4728 152.998C61.2563 152.207 61.365 151.227 62.3186 150.849C62.3199 150.849 62.3218 150.848 62.3232 150.847C62.6282 150.727 62.9836 150.69 63.379 150.734L84.7672 153.169C86.2983 153.343 87.9389 154.759 88.3503 156.261L94.1993 177.623C91.645 177.541 88.4357 177.905 84.7957 179.056C76.3039 181.741 72.6359 184.878 71.4273 186.137C71.425 184.958 71.4777 182.538 71.8924 180.654C72.3593 178.533 74.4118 166.399 72.2653 163.699C71.8291 163.15 71.414 162.879 71.0039 162.879C70.9269 162.879 70.8494 162.889 70.7723 162.908C69.4321 163.241 68.6033 166.44 67.2011 173.917L61.4728 152.998ZM66.5122 202.232C65.4288 199.919 64.3087 197.527 63.151 194.721C61.609 190.983 62.9648 187.731 64.6807 183.615C65.6953 181.18 66.8383 178.439 67.5121 175.189C67.5139 175.182 67.5153 175.175 67.5167 175.168C67.5552 174.981 67.5923 174.794 67.6277 174.604C68.7326 168.666 69.7421 163.727 70.9035 163.438C71.1558 163.373 71.4704 163.577 71.8373 164.038C73.6894 166.369 71.9827 177.701 71.3585 180.536C70.7764 183.183 70.8856 186.716 70.8902 186.865C70.8943 186.981 70.9718 187.083 71.0828 187.116C71.1938 187.15 71.3154 187.11 71.3842 187.016C71.414 186.975 74.4829 182.89 84.9603 179.576C90.5359 177.813 94.7437 177.94 97.2866 178.554C97.3104 178.564 97.3357 178.57 97.3618 178.573C98.9364 178.965 99.8542 179.542 100.041 179.958C100.087 180.061 100.116 180.182 99.8772 180.324C99.0502 180.814 97.1944 181.21 95.0455 181.669C92.4664 182.22 89.5433 182.844 87.2738 183.853C83.1229 185.696 78.4812 189.11 78.4348 189.145C78.3298 189.222 78.2945 189.363 78.3495 189.48C78.4046 189.597 78.5353 189.66 78.6619 189.629C78.7797 189.6 90.5432 186.74 97.9925 186.983C101.948 187.111 103.743 188.332 103.767 189.485C103.784 190.308 102.89 190.972 101.643 191.065C100.65 191.139 99.5786 191.169 98.4438 191.2C95.6822 191.277 92.5518 191.363 89.2654 192.118C84.653 193.176 81.6212 195.469 81.4946 195.567C81.3749 195.658 81.352 195.829 81.4437 195.95C81.5359 196.069 81.707 196.093 81.8262 196C81.8565 195.977 84.8897 193.682 89.3874 192.65C92.6206 191.908 95.7221 191.821 98.4585 191.746C99.5997 191.714 100.678 191.684 101.682 191.61C101.767 191.603 101.85 191.595 101.932 191.583C102.083 191.793 102.382 192.243 102.553 192.732C102.568 192.774 102.581 192.816 102.593 192.859C102.637 193.003 102.67 193.149 102.681 193.292C102.707 193.642 102.746 194.173 102.304 194.684C101.825 195.237 100.9 195.664 99.5414 195.959C99.529 195.961 99.5166 195.963 99.5043 195.966C99.502 195.967 99.4992 195.968 99.4969 195.969C98.6741 196.145 97.6948 196.273 96.5614 196.354C90.0511 196.817 85.5722 199.892 85.5277 199.923C85.4667 199.965 85.4259 200.03 85.4139 200.104C85.4025 200.177 85.4208 200.251 85.4653 200.311C85.5323 200.4 92.1573 209.27 93.0448 215.521C93.0471 215.536 93.0503 215.552 93.0522 215.567C93.0618 215.637 93.0659 215.703 93.0746 215.772C93.0866 215.871 93.0962 215.966 93.1063 216.063C93.1233 216.228 93.1407 216.393 93.1517 216.552C93.2058 217.336 93.1898 218.05 93.1173 218.693C93.1072 218.725 93.1035 218.76 93.1058 218.792C92.6641 222.391 90.5437 223.799 90.3391 223.927C85.6286 225.719 79.8961 226.654 74.532 225.572C72.0277 214.01 69.3481 208.287 66.5122 202.232ZM79.5343 236.1C77.0267 230.966 75.3572 227.416 74.7779 226.176C80.153 227.171 85.8556 226.218 90.5556 224.427C90.5634 224.425 90.5708 224.422 90.5781 224.419C92.6494 223.627 94.5245 222.674 96.0904 221.653C99.0075 225.897 101.958 230.723 105.2 236.1H79.5343ZM217.757 140.016C217.114 140.317 215.343 141.107 213.589 141.552C211.735 142.021 209.403 142.218 208.714 142.269L207.194 138.25C207.956 138.101 209.924 137.695 211.529 137.176C213.149 136.651 214.739 135.903 215.324 135.618C216.259 137.269 217.095 138.774 217.757 140.016ZM189.152 165.628C189.119 164.775 189.257 163.223 189.535 161.358C189.732 161.008 189.928 160.631 190.124 160.223C190.507 159.422 190.824 158.521 191.085 157.572C193.157 156.864 194.508 155.343 194.71 153.476C194.841 152.27 194.419 151.165 193.661 150.726C193.564 150.67 193.465 150.626 193.363 150.594C193.96 149.209 196.102 143.728 193.923 140.852C191.936 138.229 189.718 138.917 188.861 139.331C188.753 138.857 188.466 138.064 187.719 137.442C186.812 136.689 185.514 136.415 183.854 136.629C180.204 137.1 176.374 140.637 174.816 142.756C174.3 143.458 173.708 144.433 173.823 145.086C174.066 146.46 174.976 149.721 175.273 150.774C174.996 150.816 174.739 150.923 174.513 151.094C173.863 151.582 173.569 152.527 173.744 153.559C174.041 155.297 175.486 156.752 177.621 157.469C178.194 159.026 178.91 160.329 179.765 161.367C180.314 163.204 180.577 164.814 180.504 165.858C177.463 165.483 174.522 164.599 172.076 163.102C168.417 160.865 160.343 144.523 159.613 143.034L160.149 141.663C160.15 141.66 160.151 141.656 160.153 141.653L170.074 116.227H175.205C176.231 116.227 176.797 115.662 176.797 114.636V111.774C177.116 111.932 177.522 112.139 177.978 112.372C180.426 113.621 182.505 114.655 183.149 114.655H197.681L206.563 138.126C206.566 138.135 206.569 138.143 206.573 138.151L208.273 142.644C208.275 142.649 208.277 142.654 208.279 142.658L208.824 144.101C208.216 145.458 201.663 159.859 196.359 163.103V163.102C194.456 164.267 191.934 165.14 189.152 165.628ZM188.609 165.718C186.188 166.094 183.591 166.182 181.046 165.92C181.116 165.001 180.951 163.725 180.57 162.23C182.614 164.154 184.348 164.953 185.876 164.668C186.948 164.469 187.912 163.759 188.83 162.473C188.696 163.539 188.565 164.866 188.609 165.718ZM185.777 164.131C184.427 164.384 182.841 163.623 180.924 161.813C179.759 160.714 178.811 159.16 178.096 157.181C178.092 157.167 178.087 157.153 178.081 157.138C177.893 156.613 177.72 156.057 177.565 155.472C177.126 153.819 176.915 152.268 176.816 151.255C176.815 151.252 176.815 151.249 176.815 151.246C176.758 150.67 176.733 150.224 176.723 149.972C177.468 149.831 179.798 149.276 182.476 147.466C183.77 146.592 184.676 145.78 185.298 145.119C184.986 145.685 184.559 146.264 183.996 146.659C183.676 146.883 183.527 147.127 183.552 147.382C183.577 147.637 183.767 147.845 184.119 148.001C185.397 148.568 189.126 148.519 191.742 146.862C191.742 147.652 191.718 149.282 191.56 151.216L190.592 157.288C190.334 158.261 190.017 159.182 189.63 159.987C188.416 162.52 187.156 163.875 185.777 164.131ZM192.107 151.348C192.579 151.038 193.019 150.987 193.387 151.199C193.953 151.526 194.274 152.439 194.167 153.418C193.999 154.963 192.922 156.248 191.252 156.927C191.704 155.075 191.961 153.091 192.107 151.348ZM175.599 151.299C175.611 151.3 175.623 151.301 175.635 151.3C175.838 151.311 176.057 151.365 176.288 151.461C176.395 152.494 176.61 154.006 177.037 155.613C177.146 156.023 177.264 156.42 177.389 156.803C175.672 156.114 174.526 154.895 174.283 153.468C174.142 152.639 174.355 151.897 174.841 151.531C175.047 151.376 175.289 151.299 175.558 151.299C175.571 151.298 175.585 151.298 175.599 151.299ZM169.019 113.013C167.423 113.013 166.128 111.719 166.128 110.123C166.128 108.526 167.422 107.232 169.019 107.232C170.615 107.232 171.909 108.526 171.909 110.123C171.909 111.719 170.615 113.013 169.019 113.013ZM209.601 125.764C211.444 128.886 213.39 132.218 215.054 135.142C214.46 135.431 212.924 136.15 211.36 136.656C209.712 137.189 207.667 137.602 206.997 137.731L199.237 117.226L198.264 114.655H202.97C203.484 115.508 206.384 120.314 209.601 125.764ZM179.11 82.7073C179.188 82.7073 179.261 82.6747 179.313 82.6178L189.851 70.9988C189.881 70.9653 189.902 70.925 189.913 70.8814L192.118 62.0479C192.34 61.1599 192.715 60.2522 193.814 60.2522H196.427C197.471 60.2884 198.297 60.6439 198.883 61.309C199.698 62.235 200.018 63.7206 199.833 65.7246L198.875 76.1212C198.868 76.1978 198.893 76.2735 198.945 76.3304C198.997 76.3873 199.07 76.4194 199.147 76.4194H218.625C220.01 76.4194 221.208 77.5101 221.779 79.0856C222.006 79.7121 222.137 80.4134 222.137 81.1565C222.137 83.7686 220.561 85.8936 218.625 85.8936H217.98C217.862 85.8936 217.757 85.9698 217.721 86.0821C217.685 86.1945 217.724 86.3179 217.82 86.3876C218.968 87.2219 219.681 88.8218 219.681 90.562C219.681 93.1741 218.106 95.2991 216.17 95.2991H215.524C215.406 95.2991 215.301 95.3752 215.265 95.4876C215.228 95.6 215.268 95.7234 215.364 95.7931C216.512 96.6279 217.224 98.2273 217.224 99.9674C217.224 102.934 215.671 104.705 213.068 104.705C212.95 104.705 212.845 104.781 212.808 104.893C212.772 105.005 212.812 105.129 212.908 105.199C214.056 106.033 214.768 107.632 214.768 109.373C214.768 111.985 213.193 114.11 211.257 114.11H203.125H197.871H183.15C182.585 114.11 179.857 112.718 178.228 111.886C177.65 111.591 177.14 111.331 176.798 111.166V106.563V82.7073H179.11ZM161.855 120.431C163.14 118.256 164.078 116.682 164.35 116.228H169.488L168.605 118.49L161.457 136.808C161.058 136.757 160.015 136.572 158.236 135.913C156.287 135.191 154.806 133.756 154.369 133.302C156.899 128.854 159.815 123.883 161.855 120.431ZM154.088 133.798C154.659 134.377 156.117 135.71 158.047 136.425C159.704 137.039 160.743 137.256 161.252 137.332L159.713 141.276C159.237 141.239 157.857 141.074 155.752 140.334C153.633 139.589 152.076 138.721 151.526 138.396C152.274 137.021 153.151 135.451 154.088 133.798ZM163.17 182.233C162.547 176.573 158.404 167.093 154.751 158.729C151.599 151.516 148.622 144.703 149.204 143.052C149.319 142.723 149.544 142.225 149.849 141.604C150.213 140.861 150.694 139.938 151.266 138.877C151.85 139.223 153.409 140.089 155.571 140.849C157.542 141.542 158.887 141.746 159.506 141.807L159.061 142.948C159.033 143.019 159.036 143.098 159.07 143.167C159.426 143.901 167.841 161.154 171.791 163.569C174.345 165.132 177.427 166.042 180.607 166.411C180.636 166.428 180.669 166.44 180.705 166.445C180.746 166.452 180.787 166.447 180.826 166.436C183.529 166.729 186.296 166.634 188.863 166.221C188.886 166.224 188.909 166.224 188.932 166.222C188.965 166.218 188.996 166.208 189.023 166.194C191.967 165.704 194.641 164.793 196.644 163.568C202.328 160.092 209.084 144.866 209.369 144.219C209.397 144.153 209.4 144.079 209.374 144.012L208.916 142.799C209.772 142.732 211.955 142.527 213.723 142.08C215.565 141.613 217.373 140.8 218.012 140.499C218.184 140.824 218.339 141.126 218.479 141.405C218.844 142.129 219.105 142.694 219.23 143.051C219.812 144.702 216.835 151.515 213.684 158.728C210.029 167.092 205.888 176.573 205.264 182.232C204.157 192.293 200.92 216.049 200.561 218.68H197.875H169.718H167.874C167.515 216.049 164.278 192.294 163.17 182.233ZM188.967 156.997C189.048 157.124 189.011 157.293 188.884 157.374C187.71 158.123 186.132 158.423 184.539 158.423C183.256 158.423 181.963 158.228 180.863 157.914C180.719 157.873 180.634 157.722 180.676 157.577C180.717 157.432 180.867 157.347 181.013 157.39C183.362 158.061 186.616 158.174 188.59 156.914C188.718 156.832 188.887 156.87 188.967 156.997ZM39.8584 133.977L38.0362 139.549C37.9995 139.662 38.0394 139.785 38.1352 139.855C38.2311 139.924 38.3609 139.925 38.4568 139.854L43.193 136.4L47.9292 139.854C47.9769 139.89 48.0338 139.907 48.0902 139.907C48.1466 139.907 48.203 139.89 48.2507 139.855C48.3466 139.785 48.3865 139.662 48.3498 139.549L46.5275 133.977L51.2766 130.541C51.3724 130.472 51.4128 130.348 51.3761 130.235C51.3394 130.123 51.2344 130.047 51.1165 130.047L45.2538 130.058L43.453 124.479C43.3806 124.253 43.0058 124.253 42.9334 124.479L41.1326 130.058L35.2704 130.047C35.152 130.047 35.047 130.123 35.0103 130.235C34.9736 130.348 35.014 130.471 35.1098 130.541L39.8584 133.977ZM41.3303 130.604C41.4491 130.604 41.5541 130.528 41.5904 130.415L43.1925 125.452L44.7946 130.415C44.8309 130.528 44.9359 130.604 45.0543 130.604L50.2702 130.594L46.045 133.652C45.9491 133.721 45.9088 133.845 45.9454 133.958L47.5668 138.915L43.353 135.841C43.3053 135.806 43.2485 135.789 43.1921 135.789C43.1356 135.789 43.0792 135.806 43.0311 135.841L38.8173 138.915L40.4387 133.958C40.4754 133.845 40.4354 133.721 40.3391 133.652L36.1139 130.594L41.3303 130.604ZM60.0816 133.977L58.2593 139.549C58.2226 139.662 58.2626 139.785 58.3584 139.855C58.4543 139.924 58.5841 139.925 58.6799 139.854L63.4162 136.4L68.1524 139.854C68.2001 139.89 68.257 139.907 68.3134 139.907C68.3698 139.907 68.4262 139.89 68.4739 139.855C68.5698 139.785 68.6097 139.662 68.573 139.549L66.7507 133.977L71.5002 130.541C71.5961 130.472 71.6364 130.348 71.5997 130.235C71.563 130.123 71.458 130.047 71.3401 130.047H71.3397L65.4774 130.058L63.6762 124.478C63.6038 124.253 63.229 124.253 63.1566 124.478L61.3558 130.057L55.4936 130.046C55.4936 130.046 55.4936 130.046 55.4931 130.046C55.3748 130.046 55.2702 130.122 55.2335 130.235C55.1968 130.347 55.2372 130.471 55.333 130.541L60.0816 133.977ZM61.553 130.604C61.6718 130.604 61.7769 130.528 61.8131 130.415L63.4152 125.452L65.0178 130.415C65.0541 130.528 65.1591 130.604 65.2774 130.604H65.2779L70.4934 130.594L66.2682 133.652C66.1723 133.721 66.1319 133.845 66.1686 133.958L67.79 138.915L63.5762 135.841C63.5285 135.806 63.4717 135.789 63.4152 135.789C63.3588 135.789 63.3024 135.806 63.2542 135.841L59.0405 138.915L60.6618 133.958C60.6985 133.845 60.6586 133.721 60.5623 133.652L56.3371 130.594L61.553 130.604ZM80.3048 133.977L78.4821 139.549C78.4454 139.662 78.4853 139.785 78.5811 139.855C78.6288 139.89 78.6857 139.907 78.7417 139.907C78.7981 139.907 78.8545 139.89 78.9027 139.854L83.6389 136.4L88.3751 139.854C88.4705 139.925 88.6003 139.924 88.6966 139.855C88.7925 139.785 88.8324 139.662 88.7957 139.549L86.973 133.977L91.722 130.541C91.8179 130.472 91.8582 130.348 91.8215 130.235C91.7849 130.123 91.6798 130.047 91.5619 130.047H91.5615L85.6992 130.058L83.8985 124.479C83.826 124.253 83.4513 124.253 83.3788 124.479L81.5781 130.058L75.7158 130.047C75.5975 130.047 75.4925 130.123 75.4558 130.235C75.4191 130.348 75.4594 130.471 75.5553 130.541L80.3048 133.977ZM81.7762 130.604C81.895 130.604 82.0001 130.528 82.0363 130.415L83.6384 125.452L85.2406 130.415C85.2768 130.528 85.3818 130.604 85.5002 130.604H85.5006L90.7162 130.594L86.4909 133.652C86.395 133.721 86.3547 133.845 86.3914 133.958L88.0128 138.915L83.799 135.841C83.7513 135.806 83.6944 135.789 83.638 135.789C83.5816 135.789 83.5251 135.806 83.477 135.841L79.2632 138.915L80.8846 133.958C80.9213 133.845 80.8814 133.721 80.785 133.652L76.5598 130.594L81.7762 130.604ZM100.528 133.977L98.7053 139.549C98.6686 139.662 98.7085 139.785 98.8043 139.855C98.852 139.89 98.9089 139.907 98.9649 139.907C99.0213 139.907 99.0777 139.89 99.1259 139.854L103.862 136.4L108.598 139.854C108.694 139.925 108.824 139.924 108.92 139.855C109.016 139.785 109.056 139.662 109.019 139.549L107.196 133.977L111.945 130.541C112.041 130.472 112.081 130.348 112.045 130.235C112.008 130.123 111.903 130.047 111.785 130.047H111.785L105.922 130.058L104.122 124.479C104.049 124.253 103.674 124.253 103.602 124.479L101.801 130.058L95.9386 130.047C95.9386 130.047 95.9386 130.047 95.9381 130.047C95.8198 130.047 95.7152 130.123 95.6785 130.235C95.6418 130.348 95.6822 130.472 95.778 130.541L100.528 133.977ZM101.999 130.604C102.118 130.604 102.223 130.528 102.259 130.415L103.862 125.452L105.464 130.415C105.5 130.528 105.605 130.604 105.723 130.604H105.724L110.939 130.594L106.714 133.652C106.618 133.721 106.578 133.845 106.615 133.958L108.236 138.915L104.022 135.841C103.926 135.771 103.796 135.771 103.701 135.841L99.4868 138.915L101.108 133.958C101.145 133.845 101.105 133.721 101.009 133.652L96.7834 130.594L101.999 130.604ZM120.75 133.977L118.928 139.549C118.891 139.662 118.931 139.785 119.027 139.855C119.123 139.924 119.253 139.925 119.349 139.854L124.085 136.4L128.821 139.854C128.869 139.89 128.926 139.907 128.982 139.907C129.038 139.907 129.095 139.89 129.143 139.855C129.238 139.785 129.278 139.662 129.242 139.549L127.419 133.977L132.168 130.541C132.264 130.472 132.305 130.348 132.268 130.235C132.231 130.123 132.126 130.047 132.008 130.047H132.008L126.146 130.058L124.345 124.479C124.272 124.253 123.898 124.253 123.825 124.479L122.024 130.058L116.162 130.047C116.162 130.047 116.162 130.047 116.162 130.047C116.043 130.047 115.939 130.123 115.902 130.235C115.865 130.348 115.906 130.471 116.002 130.541L120.75 133.977ZM122.222 130.604C122.341 130.604 122.446 130.528 122.482 130.415L124.084 125.452L125.686 130.415C125.723 130.528 125.828 130.604 125.946 130.604H125.947L131.162 130.594L126.937 133.652C126.841 133.721 126.801 133.845 126.837 133.958L128.459 138.915L124.245 135.841C124.197 135.806 124.14 135.789 124.084 135.789C124.027 135.789 123.971 135.806 123.923 135.841L119.709 138.915L121.331 133.958C121.367 133.845 121.327 133.721 121.231 133.652L117.006 130.594L122.222 130.604Z" fill="#0984E3"/>
<path d="M84.8291 152.626L63.6212 150.212L64.8591 149.606C65.1541 149.462 65.5554 149.427 65.7471 149.45L87.1358 151.884C88.6668 152.058 90.3075 153.474 90.7189 154.976L97.005 177.934C96.3408 177.8 95.5941 177.701 94.7735 177.651L88.8778 156.118C88.4049 154.392 86.589 152.826 84.8291 152.626ZM69.9453 211.522C69.055 209.152 68.146 207.07 67.2199 205.049C68.1629 207.218 69.1128 209.453 69.9453 211.522ZM106.023 210.873L101.873 195.715C101.366 196.005 100.716 196.245 99.9161 196.436L104.182 212.014C104.391 212.779 104.321 213.477 103.987 214.012C104.566 213.749 105.069 213.366 105.452 212.885C105.805 212.44 106.014 211.953 106.063 211.497C106.068 211.336 106.061 211.164 106.044 210.982C106.037 210.946 106.033 210.909 106.023 210.873ZM83.4073 156.999C83.171 157.006 82.9793 157.105 82.838 157.296C82.589 157.631 82.5376 158.188 82.7009 158.784C82.9807 159.806 83.8201 160.64 84.5388 160.635C84.775 160.629 84.9667 160.529 85.108 160.338C85.3571 160.003 85.4084 159.446 85.2451 158.85C84.9654 157.829 84.1164 157.003 83.4073 156.999ZM97.1747 186.423C97.4586 186.424 97.737 186.429 98.0104 186.438C98.4911 186.453 98.9396 186.484 99.3579 186.529L97.998 181.561C97.3884 181.718 96.7036 181.872 95.972 182.029L97.1747 186.423ZM102.304 194.685C102.746 194.174 102.707 193.644 102.681 193.293C102.67 193.15 102.637 193.004 102.594 192.86C102.581 192.818 102.567 192.776 102.554 192.734C102.382 192.245 102.083 191.794 101.933 191.585C101.851 191.596 101.767 191.605 101.682 191.611C100.678 191.685 99.6001 191.716 98.459 191.747C95.7225 191.823 92.6205 191.909 89.3878 192.651C84.8901 193.684 81.857 195.978 81.8267 196.001C81.7074 196.094 81.5359 196.07 81.4441 195.951C81.3524 195.831 81.3754 195.66 81.4951 195.568C81.6217 195.471 84.6535 193.178 89.2658 192.119C92.5522 191.365 95.6822 191.278 98.4443 191.201C99.579 191.17 100.651 191.14 101.643 191.066C102.891 190.974 103.784 190.31 103.767 189.486C103.743 188.333 101.949 187.113 97.9929 186.984C90.5437 186.742 78.7807 189.601 78.6623 189.63C78.5357 189.661 78.405 189.599 78.35 189.481C78.2949 189.363 78.3302 189.223 78.4353 189.146C78.4816 189.112 83.1233 185.697 87.2743 183.854C89.5438 182.846 92.4669 182.222 95.046 181.671C97.1949 181.212 99.0506 180.816 99.8776 180.325C100.116 180.183 100.087 180.063 100.041 179.96C99.8547 179.543 98.9369 178.965 97.3623 178.574C97.3361 178.571 97.3109 178.565 97.287 178.556C94.7442 177.941 90.5364 177.815 84.9608 179.578C74.4838 182.891 71.4144 186.977 71.3846 187.017C71.3158 187.111 71.1947 187.152 71.0833 187.118C70.9718 187.084 70.8943 186.983 70.8906 186.866C70.886 186.717 70.7769 183.185 71.3589 180.538C71.9832 177.702 73.6903 166.37 71.8378 164.039C71.4708 163.578 71.1562 163.375 70.9039 163.439C69.7426 163.728 68.733 168.666 67.6281 174.605C67.5928 174.795 67.5556 174.982 67.5171 175.169C67.5162 175.176 67.5144 175.183 67.5125 175.191C66.8383 178.441 65.6957 181.182 64.6812 183.616C62.9648 187.732 61.6095 190.983 63.1515 194.722C64.3092 197.529 65.4293 199.921 66.5126 202.234C69.3486 208.289 72.0277 214.011 74.5329 225.574C79.8971 226.656 85.6295 225.722 90.34 223.929C90.5442 223.801 92.6646 222.393 93.1067 218.794C93.1044 218.762 93.1081 218.727 93.1182 218.695C93.1907 218.053 93.2063 217.339 93.1526 216.554C93.1388 216.387 93.1237 216.225 93.1072 216.065C93.0971 215.969 93.0879 215.873 93.0756 215.775C93.0659 215.69 93.0558 215.605 93.0457 215.523C92.1587 209.272 85.5337 200.402 85.4662 200.312C85.4217 200.253 85.4029 200.178 85.4149 200.105C85.4263 200.032 85.4676 199.967 85.5286 199.924C85.5731 199.894 90.052 196.819 96.5624 196.356C97.6957 196.275 98.675 196.147 99.4978 195.971C99.5001 195.97 99.5024 195.969 99.5052 195.968C99.5176 195.965 99.5299 195.962 99.5423 195.961C100.901 195.665 101.826 195.239 102.304 194.685ZM169.019 113.013C170.615 113.013 171.909 111.719 171.909 110.123C171.909 108.527 170.615 107.232 169.019 107.232C167.423 107.232 166.128 108.526 166.128 110.123C166.128 111.719 167.422 113.013 169.019 113.013ZM221.78 79.0856C221.209 77.5101 220.011 76.4194 218.626 76.4194H199.147C199.071 76.4194 198.997 76.3873 198.946 76.3304C198.894 76.2735 198.869 76.1974 198.876 76.1212L199.834 65.7246C200.019 63.7202 199.699 62.2346 198.884 61.309C198.298 60.6439 197.471 60.2884 196.428 60.2522H193.815C192.716 60.2522 192.341 61.1599 192.119 62.0479L189.914 70.8814C189.904 70.925 189.882 70.9653 189.852 70.9988L179.314 82.6178C179.262 82.6751 179.188 82.7073 179.111 82.7073H176.797V106.563C179.008 107.556 183.24 109.966 183.24 109.966L210.131 110.504C210.131 110.504 212.811 108.979 212.94 106.978C213.068 104.977 210.579 103.363 210.579 103.363C210.579 103.363 214.703 103.303 214.942 100.046C215.181 96.7898 213.149 94.7281 213.149 94.7281C213.149 94.7281 216.802 95.6995 217.391 90.9335C217.982 86.1675 215.449 84.5695 215.449 84.5695C215.449 84.5695 220.798 84.3901 221.575 81.3725C221.774 80.5942 221.819 79.8149 221.78 79.0856ZM177.389 156.803C177.264 156.42 177.146 156.023 177.037 155.612C176.61 154.006 176.395 152.493 176.287 151.461C176.057 151.365 175.838 151.311 175.634 151.3C175.622 151.3 175.61 151.3 175.599 151.298C175.585 151.298 175.57 151.298 175.557 151.298C175.287 151.298 175.046 151.375 174.84 151.53C174.355 151.896 174.141 152.638 174.282 153.468C174.525 154.894 175.672 156.114 177.389 156.803ZM158.236 135.913C160.015 136.572 161.057 136.757 161.457 136.808L168.605 118.49C168.14 118.487 167.76 118.475 167.494 118.451C165.292 118.252 163.754 118.82 161.855 120.431C159.815 123.882 156.899 128.853 154.37 133.302C154.806 133.756 156.287 135.191 158.236 135.913ZM218.012 140.5C217.373 140.801 215.565 141.615 213.723 142.081C211.955 142.528 209.772 142.733 208.916 142.8L209.374 144.013C209.4 144.08 209.398 144.155 209.369 144.22C209.084 144.866 202.328 160.092 196.644 163.569C194.641 164.794 191.967 165.704 189.023 166.195C188.995 166.209 188.965 166.219 188.932 166.223C188.908 166.225 188.886 166.225 188.863 166.222C186.295 166.635 183.528 166.729 180.826 166.436C180.787 166.448 180.746 166.452 180.705 166.446C180.669 166.441 180.636 166.429 180.607 166.412C177.427 166.042 174.346 165.132 171.791 163.57C167.841 161.154 159.426 143.901 159.07 143.168C159.036 143.1 159.033 143.02 159.061 142.949L159.506 141.808C158.886 141.747 157.542 141.543 155.571 140.85C153.409 140.09 151.85 139.224 151.266 138.878C150.694 139.939 150.213 140.861 149.849 141.605C149.579 142.795 149.33 143.273 150.732 146.508C152.469 150.518 166.192 175.075 166.418 178.657C166.64 182.194 168.868 211.457 169.718 218.681H197.875C199.026 209.396 199.932 187.354 200.748 180.301C201.572 173.179 211.689 160.326 214.94 154.366C217.995 148.767 218.87 144.529 218.479 141.407C218.339 141.127 218.184 140.825 218.012 140.5ZM208.714 142.269C209.403 142.218 211.735 142.021 213.589 141.552C215.343 141.107 217.114 140.317 217.757 140.016C217.095 138.774 216.259 137.269 215.324 135.618C214.739 135.904 213.149 136.652 211.529 137.176C209.924 137.696 207.956 138.102 207.194 138.25L208.714 142.269ZM204.065 119.527C202.295 118.258 200.64 117.58 199.237 117.227L206.998 137.732C207.667 137.603 209.713 137.189 211.361 136.656C212.924 136.15 214.461 135.431 215.054 135.142C213.391 132.218 211.444 128.886 209.602 125.765C207.713 123.097 205.767 120.747 204.065 119.527ZM159.713 141.276L161.252 137.332C160.743 137.256 159.704 137.039 158.047 136.425C156.117 135.71 154.659 134.377 154.088 133.798C153.151 135.451 152.274 137.021 151.526 138.396C152.076 138.721 153.633 139.589 155.752 140.334C157.857 141.074 159.237 141.239 159.713 141.276ZM194.167 153.418C194.273 152.438 193.953 151.526 193.387 151.199C193.019 150.987 192.579 151.038 192.107 151.347C191.961 153.091 191.704 155.075 191.252 156.927C192.922 156.247 193.999 154.963 194.167 153.418ZM183.552 147.382C183.577 147.638 183.768 147.846 184.119 148.002C185.397 148.568 189.127 148.519 191.742 146.862C191.742 147.652 191.719 149.283 191.56 151.217L190.592 157.288C190.334 158.262 190.018 159.182 189.631 159.988C188.417 162.52 187.156 163.876 185.777 164.131C184.427 164.384 182.841 163.623 180.924 161.813C179.759 160.714 178.812 159.16 178.097 157.181C178.093 157.167 178.088 157.153 178.082 157.138C177.893 156.613 177.721 156.057 177.565 155.472C177.127 153.819 176.916 152.268 176.816 151.255C176.816 151.252 176.816 151.249 176.815 151.246C176.759 150.67 176.734 150.224 176.723 149.972C177.468 149.831 179.798 149.276 182.476 147.466C183.771 146.592 184.676 145.78 185.299 145.119C184.986 145.685 184.559 146.264 183.996 146.659C183.676 146.884 183.527 147.127 183.552 147.382ZM181.013 157.39C180.868 157.347 180.717 157.432 180.676 157.577C180.635 157.722 180.719 157.874 180.864 157.914C181.963 158.229 183.256 158.423 184.539 158.423C186.133 158.423 187.711 158.123 188.884 157.374C189.011 157.293 189.048 157.124 188.968 156.997C188.887 156.87 188.718 156.832 188.591 156.914C186.617 158.173 183.363 158.06 181.013 157.39ZM185.876 164.668C184.348 164.953 182.614 164.155 180.57 162.23C180.951 163.726 181.116 165.001 181.046 165.92C183.591 166.182 186.188 166.095 188.609 165.719C188.565 164.867 188.696 163.539 188.83 162.474C187.911 163.759 186.948 164.469 185.876 164.668ZM50.2707 130.594L45.0552 130.604C45.0552 130.604 45.0552 130.604 45.0547 130.604C44.9364 130.604 44.8313 130.528 44.7951 130.415L43.193 125.452L41.5908 130.415C41.5546 130.528 41.4496 130.604 41.3312 130.604L36.1152 130.594L40.3405 133.652C40.4364 133.721 40.4767 133.845 40.44 133.958L38.8186 138.915L43.0324 135.841C43.0801 135.806 43.137 135.789 43.1934 135.789C43.2498 135.789 43.3063 135.806 43.3544 135.841L47.5682 138.915L45.9468 133.958C45.9101 133.845 45.95 133.721 46.0463 133.652L50.2707 130.594ZM59.0414 138.915L63.2552 135.841C63.3029 135.806 63.3597 135.789 63.4162 135.789C63.4726 135.789 63.529 135.806 63.5771 135.841L67.7909 138.915L66.1695 133.958C66.1329 133.845 66.1728 133.721 66.2691 133.652L70.4943 130.594L65.2788 130.604C65.2788 130.604 65.2788 130.604 65.2784 130.604C65.16 130.604 65.055 130.528 65.0187 130.415L63.4162 125.452L61.814 130.415C61.7778 130.528 61.6727 130.604 61.5544 130.604L56.3384 130.594L60.5637 133.652C60.6596 133.721 60.6999 133.845 60.6632 133.958L59.0414 138.915ZM80.8855 133.958L79.2641 138.915L83.4779 135.841C83.5256 135.806 83.5825 135.789 83.6389 135.789C83.6953 135.789 83.7517 135.806 83.7999 135.841L88.0137 138.915L86.3923 133.958C86.3556 133.845 86.3955 133.721 86.4918 133.652L90.7171 130.594L85.5015 130.604C85.5015 130.604 85.5015 130.604 85.5011 130.604C85.3827 130.604 85.2777 130.528 85.2415 130.415L83.6393 125.452L82.0372 130.415C82.001 130.528 81.8959 130.604 81.7776 130.604L76.5616 130.594L80.7869 133.652C80.8823 133.721 80.9222 133.845 80.8855 133.958ZM110.94 130.594L105.724 130.604C105.606 130.604 105.5 130.528 105.464 130.415L103.862 125.452L102.259 130.415C102.223 130.528 102.118 130.604 102 130.604H101.999L96.7839 130.594L101.009 133.652C101.105 133.721 101.145 133.845 101.109 133.958L99.4873 138.915L103.701 135.841C103.797 135.771 103.927 135.771 104.023 135.841L108.236 138.915L106.615 133.958C106.578 133.845 106.618 133.721 106.715 133.652L110.94 130.594ZM131.163 130.594L125.947 130.604C125.947 130.604 125.947 130.604 125.947 130.604C125.828 130.604 125.723 130.528 125.687 130.415L124.085 125.452L122.483 130.415C122.446 130.528 122.341 130.604 122.223 130.604H122.223L117.007 130.594L121.232 133.652C121.328 133.721 121.369 133.845 121.332 133.958L119.71 138.915L123.924 135.841C123.972 135.806 124.029 135.789 124.085 135.789C124.142 135.789 124.198 135.806 124.246 135.841L128.46 138.915L126.839 133.958C126.802 133.845 126.842 133.721 126.938 133.652L131.163 130.594Z" fill="white"/>
<path d="M103.41 213.88C103.145 214.196 102.739 214.383 102.243 214.426C102.098 214.432 101.951 214.433 101.804 214.427C101.802 214.427 101.8 214.427 101.798 214.427C101.781 214.426 101.765 214.424 101.748 214.422L93.1516 213.444C91.5775 207.907 87.0444 201.539 86.0762 200.218C87.066 199.598 91.083 197.292 96.6003 196.9C97.658 196.825 98.5836 196.709 99.3813 196.552L103.654 212.158C103.845 212.853 103.758 213.464 103.41 213.88ZM84.7951 179.056C76.3033 181.741 72.6353 184.878 71.4267 186.137C71.4244 184.958 71.4772 182.539 71.8918 180.654C72.3587 178.534 74.4113 166.399 72.2647 163.699C71.8285 163.15 71.4134 162.88 71.0034 162.88C70.9263 162.88 70.8488 162.89 70.7718 162.908C69.4315 163.242 68.6027 166.441 67.2005 173.918L61.4727 152.999C61.2562 152.207 61.3649 151.228 62.3185 150.849C62.3198 150.849 62.3217 150.849 62.3231 150.848C62.6281 150.728 62.9835 150.69 63.3789 150.735L84.7671 153.169C86.2982 153.343 87.9388 154.76 88.3503 156.262L94.1992 177.623C91.6449 177.542 88.4356 177.905 84.7951 179.056ZM84.5529 161.181C84.9543 161.171 85.307 160.987 85.5469 160.664C85.9005 160.188 85.9826 159.473 85.7721 158.705C85.4235 157.433 84.4002 156.453 83.4301 156.453C83.4182 156.453 83.4058 156.453 83.3939 156.453C82.9925 156.463 82.6398 156.647 82.3999 156.97C82.0463 157.447 81.9642 158.161 82.1747 158.929C82.5233 160.201 83.5466 161.182 84.5172 161.181C84.5286 161.181 84.5405 161.181 84.5529 161.181ZM95.4367 182.144C95.345 182.164 95.2523 182.184 95.1592 182.204C92.6067 182.749 89.713 183.367 87.4953 184.352C84.6249 185.627 81.5101 187.668 79.8869 188.787C82.9714 188.098 90.7046 186.507 96.6091 186.427L95.4367 182.144Z" fill="#263238"/>
<path d="M94.8266 220.045C95.0624 220.267 95.2839 220.526 95.4697 220.769C95.2449 220.502 95.0307 220.26 94.8266 220.045ZM93.0456 215.522C93.0557 215.603 93.0658 215.688 93.0754 215.774C93.0667 215.704 93.063 215.639 93.053 215.568C93.0507 215.553 93.0475 215.537 93.0456 215.522ZM106.044 210.982C106.061 211.165 106.068 211.337 106.063 211.498C106.082 211.319 106.076 211.147 106.044 210.982ZM208.278 142.658C208.276 142.654 208.274 142.649 208.273 142.645L206.572 138.152C206.569 138.143 206.565 138.136 206.563 138.127L197.68 114.656H183.148C182.504 114.656 180.425 113.622 177.977 112.372C177.521 112.139 177.115 111.932 176.796 111.775V114.636C176.796 115.662 176.231 116.228 175.204 116.228H170.073L160.152 141.653C160.151 141.657 160.149 141.66 160.148 141.663L159.613 143.035C160.342 144.523 168.417 160.865 172.075 163.103C174.521 164.599 177.463 165.483 180.503 165.858C180.577 164.814 180.313 163.204 179.764 161.367C178.91 160.329 178.193 159.026 177.62 157.469C175.485 156.752 174.04 155.298 173.744 153.56C173.568 152.528 173.863 151.583 174.512 151.094C174.739 150.924 174.996 150.817 175.273 150.774C174.975 149.722 174.065 146.46 173.823 145.086C173.708 144.434 174.299 143.459 174.816 142.756C176.373 140.638 180.204 137.1 183.853 136.629C185.514 136.416 186.812 136.689 187.718 137.443C188.466 138.064 188.752 138.857 188.861 139.332C189.718 138.918 191.936 138.23 193.922 140.852C196.101 143.729 193.96 149.21 193.363 150.594C193.465 150.627 193.564 150.671 193.661 150.727C194.419 151.165 194.84 152.27 194.709 153.477C194.507 155.343 193.156 156.865 191.084 157.572C190.824 158.521 190.507 159.423 190.123 160.224C189.928 160.631 189.731 161.009 189.534 161.358C189.256 163.223 189.118 164.775 189.151 165.629C191.933 165.141 194.456 164.267 196.359 163.103C201.662 159.86 208.215 145.459 208.824 144.102L208.278 142.658ZM224.475 236.1H204.214L201.076 218.947C201.237 217.769 204.661 192.707 205.808 182.293C206.422 176.716 210.546 167.277 214.185 158.948C217.657 151.002 220.399 144.724 219.746 142.87C218.532 139.424 205.641 118.022 203.608 114.656H211.256C213.494 114.656 215.314 112.286 215.314 109.372C215.314 107.736 214.729 106.205 213.753 105.211C216.25 104.913 217.771 102.961 217.771 99.967C217.771 98.352 217.201 96.8389 216.248 95.844C218.449 95.7903 220.228 93.441 220.228 90.5615C220.228 88.9465 219.658 87.4334 218.705 86.439C220.907 86.3844 222.685 84.0356 222.685 81.156C222.685 78.243 220.864 75.8731 218.627 75.8731H199.448L200.378 65.7746C200.578 63.6147 200.213 61.9905 199.294 60.9475C198.615 60.1765 197.63 59.7472 196.437 59.7059H193.815C192.141 59.7059 191.74 61.3112 191.589 61.9153L189.401 70.6823L178.99 82.161H176.797V81.573C176.797 80.5469 176.232 79.9814 175.205 79.9814H153.906C152.88 79.9814 152.314 80.5465 152.314 81.573V114.636C152.314 115.662 152.879 116.228 153.906 116.228H163.714C161.781 119.467 149.9 139.434 148.689 142.87C148.036 144.724 150.778 151.001 154.25 158.948C157.889 167.276 162.013 176.716 162.628 182.293C163.778 192.744 167.224 217.953 167.362 218.961L165.868 236.1H105.838C102.468 230.509 99.4174 225.511 96.3916 221.127C96.3338 221.035 95.7242 220.076 95.0518 219.505C94.5487 219.079 93.9666 218.761 93.6758 218.615C93.7666 217.703 93.7556 216.667 93.5942 215.493C93.5277 215.011 93.4291 214.515 93.3034 214.011L101.693 214.966C101.893 214.985 102.086 214.986 102.269 214.971C103.723 214.904 105.047 214.271 105.879 213.225C106.509 212.432 106.76 211.499 106.549 210.729L102.35 195.392C102.489 195.282 102.611 195.165 102.717 195.042C103.307 194.36 103.254 193.639 103.225 193.253C103.175 192.568 102.78 191.868 102.513 191.464C103.609 191.146 104.331 190.384 104.312 189.475C104.289 188.37 103.095 187.071 99.944 186.604L98.5244 181.419C99.211 181.224 99.772 181.021 100.155 180.794C100.579 180.542 100.722 180.147 100.538 179.736C100.26 179.115 99.234 178.482 97.6075 178.07L91.2444 154.831C90.772 153.107 88.9561 151.541 87.1967 151.341L65.8085 148.907C65.5112 148.874 65.0104 148.923 64.6182 149.116L62.1097 150.344C61.0525 150.767 60.5957 151.864 60.9456 153.143L66.9661 175.132C66.807 175.892 66.6203 176.623 66.4162 177.332C66.3878 177.428 66.3589 177.526 66.329 177.626C65.6947 179.756 64.903 181.661 64.1765 183.404C62.4817 187.47 61.0177 190.982 62.6459 194.929C63.8087 197.748 64.9315 200.145 66.0176 202.464C66.4217 203.327 66.8221 204.183 67.2198 205.05C68.1628 207.218 69.1127 209.454 69.9452 211.522C71.3556 215.276 72.7201 219.753 74.0356 225.86C74.0365 225.865 74.0374 225.869 74.0388 225.874C74.0434 225.891 74.0498 225.909 74.0581 225.925C74.1374 226.096 75.9111 229.921 78.9264 236.1H49.8573C23.6567 223.452 -5.08623 124.739 56.5066 112.501C98.7616 104.106 105.654 89.3671 119.421 63.9747C142.18 21.9982 220.481 23.0779 245.769 100.69C269.631 173.929 229.118 230.011 224.475 236.1ZM51.376 130.235C51.3393 130.123 51.2342 130.047 51.1164 130.047L45.2537 130.058L43.4529 124.479C43.3804 124.253 43.0057 124.253 42.9332 124.479L41.1325 130.058L35.2703 130.047C35.1519 130.047 35.0469 130.123 35.0102 130.235C34.9735 130.348 35.0139 130.471 35.1097 130.541L39.8583 133.977L38.036 139.549C37.9993 139.662 38.0392 139.785 38.1351 139.855C38.231 139.924 38.3608 139.925 38.4566 139.854L43.1928 136.4L47.9291 139.854C47.9768 139.89 48.0336 139.907 48.0901 139.907C48.1465 139.907 48.2029 139.89 48.2506 139.855C48.3465 139.785 48.3864 139.662 48.3497 139.549L46.5274 133.977L51.2764 130.541C51.3718 130.471 51.4122 130.348 51.376 130.235ZM71.5992 130.235C71.5625 130.123 71.4574 130.047 71.3395 130.047L65.4768 130.058L63.6756 124.478C63.6032 124.253 63.2284 124.253 63.156 124.478L61.3552 130.057L55.493 130.046C55.3746 130.046 55.2696 130.122 55.2329 130.235C55.1962 130.347 55.2366 130.471 55.3324 130.541L60.082 133.977L58.2597 139.549C58.223 139.661 58.2629 139.785 58.3587 139.854C58.4546 139.924 58.5844 139.924 58.6803 139.854L63.4165 136.399L68.1527 139.854C68.2004 139.889 68.2573 139.907 68.3137 139.907C68.3701 139.907 68.4265 139.889 68.4742 139.854C68.5701 139.785 68.61 139.661 68.5733 139.549L66.751 133.977L71.5005 130.541C71.595 130.471 71.6354 130.348 71.5992 130.235ZM91.8219 130.235C91.7852 130.123 91.6802 130.047 91.5623 130.047H91.5618L85.6996 130.058L83.8988 124.479C83.8264 124.253 83.4516 124.253 83.3792 124.479L81.5784 130.058L75.7162 130.047C75.7162 130.047 75.7162 130.047 75.7157 130.047C75.5974 130.047 75.4928 130.123 75.4561 130.235C75.4194 130.348 75.4598 130.471 75.5556 130.541L80.3052 133.977L78.4824 139.549C78.4457 139.662 78.4856 139.785 78.5815 139.855C78.6292 139.89 78.6861 139.907 78.742 139.907C78.7984 139.907 78.8548 139.89 78.903 139.854L83.6392 136.4L88.3754 139.854C88.4708 139.925 88.6007 139.924 88.697 139.855C88.7928 139.785 88.8327 139.662 88.796 139.549L86.9728 133.977L91.7219 130.541C91.8182 130.471 91.8581 130.348 91.8219 130.235ZM112.045 130.235C112.008 130.123 111.903 130.047 111.785 130.047L105.923 130.058L104.122 124.479C104.05 124.253 103.675 124.253 103.602 124.479L101.801 130.058L95.9389 130.047C95.8206 130.047 95.7155 130.123 95.6788 130.235C95.6421 130.348 95.6825 130.472 95.7784 130.541L100.528 133.978L98.7056 139.55C98.6689 139.662 98.7088 139.786 98.8047 139.855C98.8524 139.89 98.9092 139.907 98.9652 139.907C99.0216 139.907 99.078 139.89 99.1262 139.855L103.862 136.4L108.599 139.855C108.694 139.925 108.824 139.925 108.92 139.855C109.016 139.786 109.056 139.662 109.019 139.55L107.196 133.977L111.945 130.541C112.041 130.471 112.081 130.348 112.045 130.235ZM132.268 130.235C132.231 130.123 132.126 130.047 132.008 130.047H132.008L126.145 130.058L124.345 124.479C124.272 124.253 123.898 124.253 123.825 124.479L122.024 130.058L116.162 130.047C116.162 130.047 116.162 130.047 116.162 130.047C116.043 130.047 115.939 130.123 115.902 130.235C115.865 130.348 115.906 130.471 116.002 130.541L120.751 133.977L118.928 139.549C118.892 139.662 118.932 139.785 119.027 139.855C119.123 139.924 119.253 139.925 119.349 139.854L124.085 136.4L128.821 139.854C128.869 139.89 128.926 139.907 128.982 139.907C129.039 139.907 129.095 139.89 129.143 139.855C129.239 139.785 129.279 139.662 129.242 139.549L127.42 133.977L132.169 130.541C132.264 130.471 132.304 130.348 132.268 130.235Z" fill="#1B55A3"/>
<path d="M95.7854 221.2C94.6153 221.963 93.2691 222.687 91.7963 223.332C92.4926 222.512 93.2939 221.181 93.6026 219.193C93.8938 219.35 94.3259 219.606 94.6992 219.922C94.7424 219.959 94.7841 220.005 94.8272 220.045C95.0313 220.261 95.2455 220.502 95.4703 220.769C95.5946 220.931 95.7069 221.085 95.7854 221.2ZM96.0908 221.653C94.5249 222.674 92.6499 223.627 90.5786 224.419C90.5708 224.422 90.5634 224.425 90.5561 224.427C85.8556 226.218 80.1535 227.171 74.7783 226.176C75.3576 227.416 77.0272 230.965 79.5347 236.1H105.2C101.958 230.723 99.008 225.897 96.0908 221.653Z" fill="#455A64"/>
<path d="M217.721 86.0826C217.685 86.195 217.725 86.3184 217.82 86.3881C218.968 87.2224 219.681 88.8222 219.681 90.5624C219.681 93.1745 218.106 95.2996 216.17 95.2996H215.525C215.406 95.2996 215.302 95.3757 215.265 95.4881C215.229 95.6004 215.269 95.7238 215.364 95.7935C216.512 96.6283 217.225 98.2277 217.225 99.9679C217.225 102.934 215.671 104.705 213.068 104.705C212.95 104.705 212.845 104.781 212.809 104.894C212.773 105.006 212.812 105.129 212.908 105.199C214.056 106.033 214.769 107.633 214.769 109.373C214.769 111.985 213.194 114.111 211.258 114.111H203.126H197.871H183.15C182.585 114.111 179.858 112.718 178.228 111.886C177.65 111.591 177.141 111.331 176.798 111.167V106.563C179.009 107.556 183.242 109.966 183.242 109.966L210.132 110.504C210.132 110.504 212.812 108.979 212.941 106.978C213.07 104.977 210.581 103.363 210.581 103.363C210.581 103.363 214.704 103.303 214.943 100.046C215.182 96.7898 213.15 94.7281 213.15 94.7281C213.15 94.7281 216.803 95.6995 217.393 90.9335C217.983 86.1675 215.451 84.5695 215.451 84.5695C215.451 84.5695 220.799 84.3901 221.576 81.3725C221.776 80.5946 221.822 79.8153 221.782 79.0861C222.009 79.7126 222.14 80.4139 222.14 81.157C222.14 83.7691 220.564 85.8941 218.628 85.8941H217.983C217.862 85.8941 217.758 85.9702 217.721 86.0826ZM150.732 146.507C149.329 143.272 149.579 142.794 149.849 141.604C149.544 142.225 149.32 142.723 149.204 143.052C148.622 144.703 151.599 151.516 154.75 158.729C158.405 167.093 162.546 176.573 163.17 182.233C164.277 192.294 167.515 216.05 167.874 218.681H169.719C168.868 211.456 166.641 182.193 166.418 178.657C166.192 175.074 152.469 150.517 150.732 146.507ZM209.601 125.764C206.384 120.314 203.484 115.507 202.969 114.656H198.264L199.237 117.227C200.639 117.58 202.295 118.258 204.065 119.527C205.767 120.747 207.712 123.097 209.601 125.764ZM167.493 118.451C167.759 118.475 168.139 118.488 168.604 118.491L169.487 116.228H164.349C164.078 116.682 163.14 118.256 161.854 120.431C163.754 118.82 165.292 118.253 167.493 118.451ZM218.479 141.406C218.87 144.528 217.994 148.766 214.94 154.365C211.689 160.326 201.571 173.178 200.748 180.3C199.932 187.353 199.026 209.395 197.875 218.68H200.56C200.92 216.049 204.156 192.294 205.264 182.233C205.887 176.573 210.03 167.093 213.683 158.729C216.835 151.515 219.812 144.702 219.23 143.052C219.105 142.695 218.844 142.13 218.479 141.406Z" fill="#CCCCCC"/>
</svg>
